<svg xmlns="http://www.w3.org/2000/svg" width="248" height="248" viewBox="0 0 248 248" version="1.1">
	<path d="M 99.500 2.014 C 82.384 5.524, 69.111 11.057, 54.542 20.756 C 26.913 39.150, 7.701 68.551, 1.545 101.860 C -0.477 112.803, -0.477 135.197, 1.545 146.140 C 7.698 179.434, 26.922 208.863, 54.507 227.217 C 76.218 241.662, 97.410 248, 124 248 C 150.590 248, 171.782 241.662, 193.493 227.217 C 220.512 209.240, 240.750 178.695, 246.031 147.922 C 246.731 143.840, 247.686 140.072, 248.152 139.550 C 249.239 138.332, 249.272 106.714, 248.186 107.385 C 247.738 107.662, 246.808 104.534, 246.119 100.434 C 243.550 85.148, 236.973 69.156, 227.244 54.542 C 208.850 26.913, 179.449 7.701, 146.140 1.545 C 134.424 -0.620, 111.207 -0.386, 99.500 2.014 M 117 25 C 117 25.550, 115.425 26, 113.500 26 C 111.575 26, 110 26.441, 110 26.981 C 110 27.520, 108.875 28.244, 107.500 28.589 C 106.125 28.934, 105 29.618, 105 30.108 C 105 30.599, 104.438 31.004, 103.750 31.008 C 102.488 31.016, 100 35.385, 100 37.592 C 100 38.249, 99.325 39.045, 98.500 39.362 C 97.286 39.827, 97 42.144, 97 51.500 C 97 60.856, 97.286 63.173, 98.500 63.638 C 99.325 63.955, 100 65.098, 100 66.178 C 100 68.302, 102.198 71, 103.929 71 C 104.518 71, 105 71.482, 105 72.071 C 105 73.802, 107.698 76, 109.822 76 C 110.902 76, 112.045 76.675, 112.362 77.500 C 113.213 79.720, 138.787 79.720, 139.638 77.500 C 139.955 76.675, 141.098 76, 142.178 76 C 144.302 76, 147 73.802, 147 72.071 C 147 71.482, 147.482 71, 148.071 71 C 149.802 71, 152 68.302, 152 66.178 C 152 65.098, 152.675 63.955, 153.500 63.638 C 155.727 62.784, 155.727 39, 153.500 39 C 152.567 39, 152 38.056, 152 36.500 C 152 35.125, 151.550 34, 151 34 C 150.450 34, 150 33.325, 150 32.500 C 150 31.675, 149.325 31, 148.500 31 C 147.675 31, 147 30.599, 147 30.108 C 147 29.618, 145.875 28.934, 144.500 28.589 C 143.125 28.244, 142 27.520, 142 26.981 C 142 26.441, 140.425 26, 138.500 26 C 136.575 26, 135 25.550, 135 25 C 135 24.407, 131.333 24, 126 24 C 120.667 24, 117 24.407, 117 25 M 83 97.500 L 83 101 90 101 L 97 101 97 159 L 97 217 90.500 217 L 84 217 84 220.500 L 84 224 125.500 224 L 167 224 167 220.500 L 167 217 159.500 217 L 152 217 152 155.500 L 152 94 117.500 94 L 83 94 83 97.500" stroke="none" fill="#1a9dda" fill-rule="evenodd"/>
</svg>