<svg xmlns="http://www.w3.org/2000/svg" width="502" height="639" viewBox="0 0 502 639"><rect width="100%" height="100%" fill="#DDDDDD"/><path fill="#999999" d="m114.29 302.78-1.71 10.09q1.61-.34 3.08-.49 1.48-.15 2.85-.15 3.82 0 6.73 1.14 2.92 1.14 4.89 3.15 1.98 2.01 2.99 4.7 1 2.7 1 5.82 0 3.85-1.36 7.03-1.35 3.18-3.77 5.45-2.41 2.26-5.71 3.5-3.3 1.24-7.18 1.24-2.28 0-4.32-.47-2.05-.47-3.84-1.26t-3.32-1.81q-1.52-1.02-2.73-2.16l2.55-3.52q.8-1.14 2.11-1.14.84 0 1.71.54t1.99 1.17q1.12.64 2.65 1.18 1.52.53 3.67.53 2.27 0 4.02-.74 1.74-.73 2.89-2.06 1.16-1.32 1.75-3.14.58-1.83.58-3.97 0-3.96-2.29-6.19-2.3-2.22-6.79-2.22-3.45 0-7.06 1.27l-5.16-1.47 4.02-23.52h23.92v3.52q0 1.77-1.11 2.88-1.11 1.1-3.75 1.1h-13.3Zm60.73 16.72q0 6.33-1.35 11-1.36 4.68-3.75 7.73-2.4 3.04-5.67 4.54-3.26 1.49-7.05 1.49-3.78 0-7.02-1.49-3.23-1.5-5.61-4.54-2.38-3.05-3.72-7.73-1.34-4.67-1.34-11 0-6.37 1.34-11.02 1.34-4.66 3.72-7.71t5.61-4.54q3.24-1.49 7.02-1.49 3.79 0 7.05 1.49 3.27 1.49 5.67 4.54 2.39 3.05 3.75 7.71 1.35 4.65 1.35 11.02Zm-8.54 0q0-5.26-.77-8.71-.77-3.45-2.06-5.49-1.29-2.05-2.96-2.87-1.68-.82-3.49-.82-1.77 0-3.43.82-1.66.82-2.93 2.87-1.28 2.04-2.03 5.49-.75 3.45-.75 8.71 0 5.26.75 8.71.75 3.45 2.03 5.49 1.27 2.05 2.93 2.87 1.66.82 3.43.82 1.81 0 3.49-.82 1.67-.82 2.96-2.87 1.29-2.04 2.06-5.49t.77-8.71Zm30.65 16.51h12.43q1.34 0 2.13.76.79.75.79 1.99v4.96h-33.24v-2.75q0-.83.36-1.76.35-.92 1.12-1.65l14.71-14.74q1.84-1.88 3.3-3.59 1.45-1.71 2.42-3.38.98-1.68 1.49-3.4.52-1.73.52-3.64 0-1.74-.5-3.06-.5-1.33-1.42-2.23-.92-.9-2.21-1.36-1.29-.45-2.9-.45-1.48 0-2.73.42-1.26.42-2.23 1.17-.97.76-1.64 1.76-.67 1.01-1.01 2.21-.57 1.54-1.47 2.05-.9.5-2.61.23l-4.36-.77q.5-3.48 1.95-6.11 1.44-2.63 3.6-4.39 2.16-1.76 4.95-2.65 2.8-.89 6.02-.89 3.35 0 6.13.99t4.76 2.8q1.97 1.81 3.08 4.35 1.1 2.55 1.1 5.66 0 2.68-.78 4.96-.79 2.28-2.11 4.36-1.33 2.07-3.1 4.02-1.78 1.94-3.72 3.95l-10.92 11.16q1.57-.47 3.13-.72 1.56-.26 2.96-.26Zm69.95-3.38-4.39 4.32-11.35-11.35-11.46 11.42-4.39-4.32 11.46-11.49-10.92-10.92 4.35-4.36 10.92 10.92L262.16 306l4.42 4.35-10.89 10.89 11.39 11.39Zm51.76-37.35-14.37 17.59-1.68 2.07q1.41-.7 3.03-1.09 1.63-.38 3.51-.38 2.74 0 5.34.9 2.59.91 4.57 2.73 1.98 1.83 3.18 4.54 1.21 2.72 1.21 6.33 0 3.39-1.24 6.35-1.24 2.97-3.48 5.18-2.25 2.21-5.41 3.48-3.17 1.28-6.99 1.28-3.88 0-6.97-1.24-3.08-1.24-5.26-3.47-2.17-2.23-3.33-5.36-1.16-3.13-1.16-6.95 0-3.42 1.4-7.02 1.39-3.6 4.3-7.49l11.56-15.51q.6-.8 1.76-1.37 1.15-.57 2.66-.57h7.37Zm-12.5 42.21q1.98 0 3.64-.67 1.66-.67 2.85-1.88 1.19-1.2 1.86-2.83.67-1.62.67-3.53 0-2.08-.64-3.74-.64-1.66-1.81-2.81-1.17-1.16-2.81-1.76-1.65-.6-3.62-.6-1.98 0-3.59.67-1.6.67-2.74 1.86-1.14 1.19-1.78 2.81-.64 1.62-.64 3.5 0 2.01.56 3.67.55 1.66 1.64 2.83 1.09 1.17 2.7 1.83 1.6.65 3.71.65Zm27.47-27.94-4.35-.77q.5-3.48 1.94-6.11 1.44-2.63 3.6-4.39 2.16-1.76 4.96-2.65 2.8-.89 6.01-.89 3.35 0 6.05.96 2.7.95 4.61 2.64 1.91 1.7 2.93 3.97 1.02 2.28 1.02 4.93 0 2.31-.52 4.07-.52 1.76-1.49 3.06-.97 1.31-2.41 2.21-1.44.91-3.25 1.51 4.35 1.38 6.5 4.19 2.14 2.81 2.14 7.07 0 3.62-1.34 6.4-1.34 2.78-3.62 4.67-2.27 1.89-5.27 2.86-3 .98-6.35.98-3.65 0-6.37-.84-2.71-.84-4.72-2.48-2.01-1.64-3.42-4.02-1.4-2.38-2.41-5.49l3.65-1.51q1.44-.61 2.7-.32 1.26.28 1.83 1.36.6 1.17 1.32 2.31.72 1.14 1.72 2.02 1.01.89 2.37 1.45 1.35.55 3.23.55 2.11 0 3.68-.69 1.58-.69 2.63-1.79 1.06-1.11 1.58-2.46.52-1.36.52-2.73 0-1.75-.37-3.17t-1.54-2.43q-1.17-1-3.37-1.57-2.19-.57-5.88-.57v-5.9q3.05-.03 5.06-.57 2.01-.53 3.2-1.49 1.19-.95 1.66-2.29t.47-2.95q0-3.42-1.91-5.19-1.91-1.78-5.09-1.78-1.48 0-2.72.42-1.24.42-2.23 1.17-.98.76-1.65 1.76-.67 1.01-1.01 2.21-.57 1.54-1.49 2.05-.92.5-2.6.23Zm41.95.27q0 4.05 2.09 6.18t5.95 2.13q2.01 0 3.58-.64 1.57-.64 2.65-1.74 1.07-1.11 1.62-2.62.55-1.5.55-3.25 0-1.97-.6-3.53-.6-1.56-1.71-2.63-1.1-1.07-2.63-1.64-1.52-.57-3.33-.57-1.88 0-3.38.62-1.51.62-2.58 1.72-1.08 1.11-1.64 2.63-.57 1.53-.57 3.34Zm-4.06 33.9 15.04-18.79q.57-.71 1.08-1.38.5-.67.97-1.34-1.68 1.07-3.69 1.63-2.01.55-4.22.55-2.51 0-4.92-.87-2.42-.87-4.29-2.63-1.88-1.76-3.03-4.36-1.16-2.59-1.16-6.08 0-3.25 1.21-6.09 1.2-2.85 3.38-4.99 2.18-2.15 5.23-3.39 3.05-1.24 6.73-1.24 3.72 0 6.68 1.18 2.97 1.17 5.06 3.28 2.1 2.11 3.22 5.06 1.12 2.94 1.12 6.46 0 2.25-.38 4.26-.39 2.01-1.09 3.87-.71 1.86-1.71 3.63-1.01 1.78-2.25 3.52l-11.09 15.81q-.56.8-1.7 1.36-1.14.55-2.58.55h-7.61Z"/></svg>