<svg xmlns="http://www.w3.org/2000/svg" width="1033" height="404" viewBox="0 0 1033 404"><rect width="100%" height="100%" fill="#DDDDDD"/><path fill="#999999" d="M250.84 234.55h15.73v11.19h-48.4v-11.19h17.73v-51q0-3.03.18-6.24l-12.58 10.53q-1.09.85-2.15 1.06-1.06.21-2 .03-.93-.18-1.66-.63-.73-.46-1.09-1l-4.72-6.48 26.68-22.68h12.28v76.41ZM341.29 202q0 11.43-2.45 19.87-2.45 8.44-6.77 13.95-4.33 5.5-10.23 8.2-5.9 2.69-12.73 2.69-6.84 0-12.68-2.69-5.84-2.7-10.13-8.2-4.3-5.51-6.72-13.95T277.16 202q0-11.5 2.42-19.91t6.72-13.91q4.29-5.51 10.13-8.2 5.84-2.69 12.68-2.69 6.83 0 12.73 2.69t10.23 8.2q4.32 5.5 6.77 13.91 2.45 8.41 2.45 19.91Zm-15.43 0q0-9.5-1.39-15.73t-3.72-9.92q-2.33-3.69-5.35-5.18-3.03-1.48-6.29-1.48-3.21 0-6.21 1.48-2.99 1.49-5.29 5.18-2.3 3.69-3.66 9.92-1.36 6.23-1.36 15.73t1.36 15.73q1.36 6.23 3.66 9.92 2.3 3.69 5.29 5.17 3 1.49 6.21 1.49 3.26 0 6.29-1.49 3.02-1.48 5.35-5.17 2.33-3.69 3.72-9.92 1.39-6.23 1.39-15.73Zm32.86-17.97-7.87-1.39q.91-6.29 3.51-11.04 2.6-4.75 6.5-7.93 3.91-3.17 8.96-4.78 5.05-1.6 10.86-1.6 6.05 0 10.92 1.72 4.87 1.73 8.32 4.78 3.45 3.06 5.29 7.17 1.85 4.12 1.85 8.9 0 4.17-.94 7.35-.94 3.17-2.69 5.53-1.76 2.36-4.36 4-2.6 1.63-5.87 2.72 7.87 2.48 11.74 7.56t3.87 12.77q0 6.53-2.42 11.55-2.42 5.02-6.53 8.44-4.12 3.42-9.53 5.17-5.42 1.76-11.47 1.76-6.59 0-11.49-1.51-4.9-1.52-8.53-4.48-3.63-2.97-6.17-7.26-2.54-4.3-4.36-9.92l6.59-2.73q2.61-1.09 4.87-.57 2.27.51 3.3 2.45 1.09 2.12 2.39 4.17 1.3 2.06 3.12 3.66 1.81 1.61 4.26 2.61 2.45.99 5.84.99 3.81 0 6.66-1.24 2.84-1.24 4.75-3.23 1.9-2 2.84-4.45t.94-4.93q0-3.15-.67-5.72-.66-2.57-2.78-4.38-2.12-1.82-6.08-2.85t-10.62-1.03v-10.64q5.51-.06 9.14-1.03 3.63-.97 5.77-2.69 2.15-1.73 3-4.15.85-2.42.85-5.32 0-6.17-3.45-9.38-3.45-3.21-9.2-3.21-2.66 0-4.9.76t-4.02 2.12q-1.79 1.36-3 3.17-1.21 1.82-1.81 4-1.03 2.78-2.7 3.69-1.66.9-4.68.42Zm70.18 0-7.87-1.39q.91-6.29 3.51-11.04 2.6-4.75 6.5-7.93 3.91-3.17 8.96-4.78 5.05-1.6 10.86-1.6 6.05 0 10.92 1.72 4.87 1.73 8.32 4.78 3.45 3.06 5.29 7.17 1.85 4.12 1.85 8.9 0 4.17-.94 7.35-.94 3.17-2.69 5.53-1.76 2.36-4.36 4-2.6 1.63-5.87 2.72 7.87 2.48 11.74 7.56t3.87 12.77q0 6.53-2.42 11.55-2.42 5.02-6.53 8.44-4.12 3.42-9.53 5.17-5.42 1.76-11.47 1.76-6.59 0-11.49-1.51-4.9-1.52-8.53-4.48-3.63-2.97-6.17-7.26-2.54-4.3-4.36-9.92l6.59-2.73q2.61-1.09 4.87-.57 2.27.51 3.3 2.45 1.09 2.12 2.39 4.17 1.3 2.06 3.12 3.66 1.81 1.61 4.26 2.61 2.45.99 5.84.99 3.81 0 6.66-1.24 2.84-1.24 4.75-3.23 1.9-2 2.84-4.45t.94-4.93q0-3.15-.67-5.72-.66-2.57-2.78-4.38-2.12-1.82-6.08-2.85t-10.62-1.03v-10.64q5.51-.06 9.14-1.03 3.63-.97 5.77-2.69 2.15-1.73 3-4.15.85-2.42.85-5.32 0-6.17-3.45-9.38-3.45-3.21-9.2-3.21-2.66 0-4.9.76t-4.02 2.12q-1.79 1.36-3 3.17-1.21 1.82-1.81 4-1.03 2.78-2.7 3.69-1.66.9-4.68.42Zm148.83 41.68-7.93 7.81-20.51-20.51-20.69 20.63-7.93-7.8 20.7-20.76-19.73-19.72 7.87-7.86 19.72 19.72 19.6-19.6 7.99 7.86-19.66 19.66 20.57 20.57Zm52.39-12.94h26.62v-28.62q0-4.05.54-8.95l-27.16 37.57Zm39.63 0h11.01v8.65q0 1.21-.79 2.09-.79.87-2.24.87h-7.98v21.36h-13.01v-21.36h-36.91q-1.51 0-2.66-.93-1.15-.94-1.45-2.33l-1.57-7.57 41.44-55.35h14.16v54.57ZM751 202q0 11.43-2.45 19.87-2.45 8.44-6.78 13.95-4.32 5.5-10.22 8.2-5.9 2.69-12.74 2.69-6.83 0-12.67-2.69-5.84-2.7-10.14-8.2-4.29-5.51-6.71-13.95T686.87 202q0-11.5 2.42-19.91t6.71-13.91q4.3-5.51 10.14-8.2 5.84-2.69 12.67-2.69 6.84 0 12.74 2.69t10.22 8.2q4.33 5.5 6.78 13.91T751 202Zm-15.43 0q0-9.5-1.39-15.73t-3.72-9.92q-2.33-3.69-5.36-5.18-3.02-1.48-6.29-1.48-3.2 0-6.2 1.48-2.99 1.49-5.29 5.18-2.3 3.69-3.66 9.92-1.36 6.23-1.36 15.73t1.36 15.73q1.36 6.23 3.66 9.92 2.3 3.69 5.29 5.17 3 1.49 6.2 1.49 3.27 0 6.29-1.49 3.03-1.48 5.36-5.17 2.33-3.69 3.72-9.92 1.39-6.23 1.39-15.73Zm34.91 10.77h26.62v-28.62q0-4.05.54-8.95l-27.16 37.57Zm39.63 0h11.01v8.65q0 1.21-.79 2.09-.79.87-2.24.87h-7.98v21.36H797.1v-21.36h-36.91q-1.51 0-2.66-.93-1.15-.94-1.45-2.33l-1.57-7.57 41.44-55.35h14.16v54.57Z"/></svg>