<svg xmlns="http://www.w3.org/2000/svg" width="723" height="397" viewBox="0 0 723 397"><rect width="100%" height="100%" fill="#DDDDDD"/><path fill="#999999" d="M147.16 163.795h47.95v5.14q0 2.3-.48 3.72-.48 1.41-.96 2.37l-26.31 54.15q-.81 1.68-2.3 2.85-1.49 1.18-3.98 1.18h-8.6l26.84-53.04q.91-1.63 1.8-3 .88-1.37 1.99-2.62h-33.22q-1.1 0-1.92-.81-.81-.82-.81-1.92v-8.02Zm80.49 58.37h17.81q1.92 0 3.05 1.08t1.13 2.86v7.1h-47.62v-3.94q0-1.2.5-2.52.51-1.32 1.61-2.37l21.07-21.12q2.64-2.69 4.73-5.14 2.09-2.45 3.48-4.85 1.39-2.4 2.14-4.87.74-2.47.74-5.21 0-2.49-.72-4.39-.72-1.89-2.04-3.19t-3.17-1.94q-1.84-.65-4.15-.65-2.11 0-3.91.6-1.8.6-3.19 1.68t-2.35 2.52q-.96 1.44-1.44 3.17-.82 2.2-2.12 2.92-1.29.72-3.74.34l-6.24-1.1q.72-5 2.78-8.76 2.07-3.77 5.16-6.29 3.1-2.52 7.11-3.79 4.01-1.28 8.61-1.28 4.8 0 8.79 1.42 3.98 1.42 6.81 4.01 2.84 2.59 4.42 6.24 1.58 3.65 1.58 8.11 0 3.84-1.12 7.1-1.13 3.27-3.03 6.24-1.89 2.98-4.44 5.76-2.54 2.79-5.33 5.67l-15.64 15.98q2.25-.67 4.48-1.03 2.24-.36 4.25-.36Zm37.83-37.92-6.24-1.1q.72-5 2.78-8.76 2.06-3.77 5.16-6.29t7.1-3.79q4.01-1.28 8.62-1.28 4.8 0 8.66 1.37 3.87 1.37 6.6 3.79 2.74 2.43 4.2 5.69 1.47 3.27 1.47 7.06 0 3.31-.75 5.83-.74 2.52-2.13 4.39-1.39 1.87-3.46 3.17-2.06 1.3-4.65 2.16 6.24 1.97 9.31 6 3.07 4.03 3.07 10.13 0 5.18-1.92 9.17-1.92 3.98-5.18 6.69-3.27 2.71-7.56 4.11-4.3 1.39-9.1 1.39-5.23 0-9.12-1.2-3.89-1.2-6.77-3.55-2.88-2.36-4.89-5.76-2.02-3.41-3.46-7.88l5.23-2.16q2.07-.86 3.87-.45 1.8.41 2.61 1.94.87 1.68 1.9 3.31 1.03 1.64 2.47 2.91 1.44 1.27 3.38 2.06 1.95.79 4.64.79 3.02 0 5.28-.98 2.25-.98 3.76-2.57 1.52-1.58 2.26-3.53.74-1.94.74-3.91 0-2.49-.52-4.53-.53-2.04-2.21-3.48t-4.83-2.26q-3.14-.82-8.42-.82v-8.44q4.37-.05 7.25-.82 2.88-.77 4.58-2.14 1.71-1.36 2.38-3.28.67-1.92.67-4.23 0-4.89-2.74-7.44-2.73-2.54-7.29-2.54-2.11 0-3.89.6-1.78.6-3.19 1.68-1.42 1.08-2.38 2.52t-1.44 3.17q-.81 2.2-2.13 2.92-1.32.72-3.72.34Zm118.08 33.07-6.29 6.19-16.27-16.27-16.42 16.37-6.29-6.19 16.42-16.47-15.65-15.64 6.24-6.24 15.65 15.64 15.55-15.55 6.34 6.24-15.6 15.6 16.32 16.32Zm39.93-33.07-6.24-1.1q.72-5 2.79-8.76 2.06-3.77 5.16-6.29 3.09-2.52 7.1-3.79 4.01-1.28 8.62-1.28 4.8 0 8.66 1.37 3.86 1.37 6.6 3.79 2.74 2.43 4.2 5.69 1.46 3.27 1.46 7.06 0 3.31-.74 5.83t-2.14 4.39q-1.39 1.87-3.45 3.17-2.07 1.3-4.66 2.16 6.24 1.97 9.31 6 3.08 4.03 3.08 10.13 0 5.18-1.92 9.17-1.92 3.98-5.19 6.69-3.26 2.71-7.56 4.11-4.29 1.39-9.09 1.39-5.24 0-9.12-1.2-3.89-1.2-6.77-3.55-2.88-2.36-4.9-5.76-2.01-3.41-3.45-7.88l5.23-2.16q2.06-.86 3.86-.45 1.8.41 2.62 1.94.86 1.68 1.89 3.31 1.04 1.64 2.48 2.91 1.44 1.27 3.38 2.06t4.63.79q3.03 0 5.28-.98 2.26-.98 3.77-2.57 1.51-1.58 2.26-3.53.74-1.94.74-3.91 0-2.49-.53-4.53t-2.21-3.48q-1.68-1.44-4.82-2.26-3.14-.82-8.42-.82v-8.44q4.36-.05 7.24-.82 2.88-.77 4.59-2.14 1.7-1.36 2.37-3.28.68-1.92.68-4.23 0-4.89-2.74-7.44-2.74-2.54-7.3-2.54-2.11 0-3.88.6-1.78.6-3.2 1.68-1.41 1.08-2.37 2.52-.96 1.44-1.44 3.17-.82 2.2-2.14 2.92-1.32.72-3.72.34Zm60.1.38q0 5.81 3 8.86t8.52 3.05q2.88 0 5.13-.91 2.26-.92 3.8-2.5 1.53-1.58 2.32-3.74.8-2.16.8-4.66 0-2.83-.87-5.06-.86-2.24-2.45-3.77-1.58-1.54-3.76-2.35-2.19-.82-4.78-.82-2.69 0-4.85.89-2.16.89-3.69 2.47-1.54 1.58-2.36 3.77-.81 2.18-.81 4.77Zm-5.81 48.58 21.55-26.93q.82-1.01 1.54-1.97.72-.96 1.39-1.92-2.4 1.54-5.28 2.33-2.88.79-6.05.79-3.6 0-7.05-1.24-3.46-1.25-6.15-3.77-2.69-2.52-4.34-6.24-1.66-3.72-1.66-8.71 0-4.66 1.73-8.74t4.85-7.15q3.12-3.07 7.49-4.85 4.36-1.78 9.64-1.78 5.33 0 9.58 1.68t7.25 4.71q3 3.02 4.61 7.25 1.6 4.22 1.6 9.26 0 3.22-.55 6.1-.55 2.88-1.56 5.54t-2.45 5.21q-1.44 2.54-3.21 5.04l-15.89 22.65q-.82 1.16-2.45 1.95-1.63.79-3.69.79h-10.9Zm50.11-69.41h47.95v5.14q0 2.3-.48 3.72-.48 1.41-.96 2.37l-26.3 54.15q-.82 1.68-2.3 2.85-1.49 1.18-3.99 1.18h-8.59l26.83-53.04q.91-1.63 1.8-3t1.99-2.62h-33.21q-1.11 0-1.92-.81-.82-.82-.82-1.92v-8.02Z"/></svg>