<svg width="1033" height="404" viewBox="0 0 1033 404" fill="none" xmlns="http://www.w3.org/2000/svg">
<g clip-path="url(#clip0_2_16)">
<path d="M271.33 126.341L271.3 132.791C271.2 153.751 267.46 180.231 232.7 180.061C201.17 179.911 195.11 159.101 195.24 132.821L195.67 44.2308C195.8 16.8008 208.04 -0.0291546 233.94 0.100845C265.31 0.250845 271.05 21.6708 270.94 45.3608L270.9 52.7808L247.27 52.6708L247.32 42.8408C247.38 30.2708 244.93 21.5708 233.68 21.5108C222.82 21.4608 219.66 29.5008 219.59 42.9408L219.14 134.781C219.07 148.791 221.95 158.801 233.42 158.861C244.81 158.911 247.4 149.481 247.47 134.991L247.51 126.231L271.32 126.351L271.33 126.341Z" fill="#404892"/>
<path d="M289.991 2.84082L313.461 2.95082L313.121 73.5108L345.281 73.6708L345.621 3.11082L369.091 3.22082L368.241 178.251L344.771 178.141L345.171 95.2508L313.011 95.0908L312.611 177.981L289.141 177.871L289.991 2.84082Z" fill="#404892"/>
<path d="M416.241 98.7608L415.851 178.481L392.381 178.371L393.231 3.34082L427.761 3.51082C454.251 3.64082 468.751 14.6608 468.601 45.0908L468.561 52.3208C468.441 77.9008 458.491 85.9208 450.561 88.8908C461.121 93.4508 466.641 101.261 466.521 124.871C466.451 139.701 466.051 167.951 467.911 178.751L445.171 178.641C442.941 167.921 443.531 138.891 443.591 126.361C443.701 104.461 440.791 98.8908 424.421 98.8108L416.231 98.7708L416.241 98.7608ZM416.331 79.2008L424.731 79.2408C440.001 79.3108 444.911 72.1708 445.001 53.2708L445.031 46.5108C445.101 31.9508 441.691 23.1308 425.451 23.0508L416.601 23.0108L416.331 79.1908V79.2008Z" fill="#404892"/>
<path d="M514.44 3.92078L513.59 178.951L490.12 178.831L490.97 3.80078L514.44 3.92078Z" fill="#404892"/>
<path d="M554.61 128.581L554.56 139.111C554.49 153.591 559.11 161.521 570.22 161.581C581.59 161.631 585.3 152.061 585.37 137.411C585.46 117.891 581.25 111.141 562.69 96.4307C543.97 81.5607 534.19 72.2907 534.32 46.4307C534.43 23.7407 541.38 1.34069 571.23 1.56069C600.91 1.78069 606.59 22.4407 606.49 42.8007L606.45 51.6307L583.16 51.5207L583.2 43.3107C583.26 30.1407 580.92 21.9007 570.68 21.8507C560.55 21.8007 557.86 30.6407 557.8 43.1307C557.73 57.1407 560.43 63.2607 576.04 74.9707C601.34 94.0407 609.18 104.901 609.04 134.091C608.92 158.831 600.81 181.851 569.47 181.701C538.83 181.551 530.98 161.781 531.09 138.721L531.14 128.471L554.61 128.581Z" fill="#404892"/>
<path d="M644.86 26.3206L616.67 26.1806L616.78 4.41064L696.66 4.80064L696.55 26.5706L668.33 26.4306L667.59 179.701L644.12 179.591L644.86 26.3206Z" fill="#404892"/>
<path d="M735.69 5.00063L734.84 180.031L711.37 179.921L712.22 4.89062L735.69 5.00063Z" fill="#404892"/>
<path d="M781.94 129.631L774.62 180.221L750.78 180.101L780.06 5.21094L813.31 5.37094L842.01 180.551L817.46 180.431L809.93 129.771L781.93 129.631H781.94ZM807.19 108.171C802.46 74.7109 798.54 45.8109 796.76 27.3809H795.87C795.09 41.4209 789.22 79.6709 785.08 108.071L807.19 108.181V108.171Z" fill="#404892"/>
<path d="M857.53 180.631L858.38 5.60107L885.83 5.73107C893.71 33.7111 915.62 122.471 917.84 133.871H918.18C917.14 111.491 917.1 86.8611 917.24 58.1911L917.49 5.88107L939.31 5.99107L938.46 181.021L912 180.891C905.01 154.921 881.43 58.6711 879.07 48.5311H878.81C879.94 69.6811 879.95 95.1911 879.79 126.721L879.53 180.741L857.53 180.631Z" fill="#404892"/>
<path d="M978.57 130.641L978.52 141.171C978.45 155.651 983.07 163.581 994.18 163.641C1005.55 163.691 1009.26 154.121 1009.33 139.471C1009.42 119.951 1005.21 113.201 986.65 98.4908C967.93 83.6208 958.15 74.3507 958.28 48.4907C958.39 25.8007 965.34 3.40075 995.19 3.62075C1024.87 3.84075 1030.55 24.5107 1030.45 44.8607L1030.41 53.6907L1007.12 53.5807L1007.16 45.3707C1007.22 32.2007 1004.88 23.9607 994.64 23.9107C984.51 23.8608 981.82 32.7007 981.76 45.1907C981.69 59.2007 984.39 65.3208 1000 77.0308C1025.3 96.1008 1033.14 106.961 1033 136.151C1032.88 160.891 1024.77 183.911 993.43 183.761C962.79 183.611 954.94 163.841 955.05 140.781L955.1 130.531L978.57 130.641Z" fill="#404892"/>
<path d="M275.78 267.881L275.37 352.341C275.21 384.711 261.56 400.311 233.41 400.181C205.53 400.041 194.02 383.301 194.17 352.321L194.58 267.391C194.73 235.461 210.28 220.111 235.8 220.231C262.06 220.361 275.93 236.751 275.77 267.891L275.78 267.881ZM218.51 265.711L218.08 354.921C218 371.621 224.01 378.911 234.6 378.961C245.89 379.011 251.37 372.151 251.45 354.511L251.88 265.761C251.96 249.891 246.84 241.671 235.18 241.611C224.24 241.561 218.59 249.101 218.51 265.701V265.711Z" fill="#404892"/>
<path d="M295.521 398.011L296.371 222.981L323.831 223.111C331.711 251.091 353.621 339.851 355.841 351.251H356.181C355.141 328.871 355.101 304.241 355.241 275.571L355.491 223.261L377.311 223.371L376.461 398.401L350.001 398.271C343.011 372.301 319.431 276.051 317.071 265.911H316.811C317.941 287.061 317.951 312.571 317.791 344.101L317.531 398.121L295.531 398.011H295.521Z" fill="#404892"/>
<path d="M518.93 347.661L518.9 354.111C518.8 375.061 515.06 401.551 480.3 401.381C448.77 401.231 442.71 380.421 442.84 354.141L443.27 265.551C443.4 238.121 455.64 221.291 481.54 221.421C512.91 221.571 518.65 242.991 518.54 266.681L518.5 274.101L494.87 273.991L494.92 264.161C494.98 251.591 492.54 242.891 481.28 242.841C470.42 242.791 467.26 250.831 467.19 264.271L466.74 356.111C466.67 370.111 469.56 380.131 481.02 380.191C492.41 380.241 495 370.811 495.07 356.331L495.11 347.571L518.92 347.691L518.93 347.661Z" fill="#404892"/>
<path d="M559.2 348.671L551.88 399.261L528.04 399.141L557.32 224.241L590.57 224.401L619.28 399.581L594.73 399.461L587.2 348.801L559.2 348.671ZM584.45 327.211C579.72 293.741 575.8 264.851 574.02 246.421H573.13C572.35 260.461 566.49 298.711 562.34 327.111L584.45 327.221V327.211Z" fill="#404892"/>
<path d="M722.261 331.641C722.411 300.911 723.001 264.901 723.621 245.411H723.361C719.051 275.341 707.461 348.771 698.891 399.981L676.471 399.871C670.431 354.561 659.341 276.601 655.411 244.901H654.881C655.311 265.261 655.981 304.911 655.831 334.971L655.511 399.781L634.061 399.671L634.911 224.641L669.821 224.811C677.581 272.391 686.201 328.311 688.451 351.911H688.711C691.631 328.361 703.041 269.761 711.351 225.011L745.231 225.181L744.381 400.211L721.931 400.101L722.261 331.651V331.641Z" fill="#404892"/>
<path d="M768.55 225.271L804.57 225.441C831.62 225.571 844.97 239.131 844.82 268.961L844.77 279.411C844.64 307.221 835.26 326.451 802.66 326.301L791.53 326.251L791.17 400.421L767.7 400.311L768.55 225.281V225.271ZM791.63 306.871L800.3 306.911C818.4 307.001 821.33 296.201 821.42 278.641L821.46 269.711C821.53 256.381 818.94 245.081 802.67 245.001L791.93 244.951L791.63 306.871Z" fill="#404892"/>
<path d="M883.54 225.831L882.89 360.191C882.82 373.681 887.34 382.051 898.92 382.111C910.76 382.171 914.73 373.541 914.79 360.421L915.44 225.981L938.99 226.101L938.34 359.941C938.21 387.321 925.79 403.541 898.37 403.411C872.05 403.281 859.28 388.781 859.43 359.791L860.08 225.721L883.55 225.841L883.54 225.831Z" fill="#404892"/>
<path d="M978.14 350.751L978.09 361.281C978.02 375.761 982.64 383.691 993.75 383.751C1005.12 383.801 1008.83 374.231 1008.9 359.571C1008.99 340.061 1004.79 333.311 986.22 318.591C967.5 303.721 957.72 294.451 957.85 268.581C957.96 245.891 964.91 223.491 994.76 223.711C1024.44 223.931 1030.12 244.601 1030.03 264.951L1029.99 273.781L1006.7 273.671L1006.74 265.461C1006.81 252.291 1004.46 244.051 994.22 244.001C984.09 243.951 981.4 252.791 981.34 265.281C981.27 279.291 983.97 285.411 999.58 297.111C1024.88 316.181 1032.72 327.041 1032.58 356.231C1032.46 380.961 1024.35 403.991 993.01 403.831C962.37 403.681 954.52 383.911 954.63 360.851L954.68 350.611L978.15 350.721L978.14 350.751Z" fill="#404892"/>
<path d="M131.52 299.07C111.64 299.07 91.51 299.07 91.51 299.07C91.51 299.07 86.25 279.38 67.46 251.76C42.75 215.43 0 193.4 0 120.49C0 62.1101 46.13 0.100098 131.52 0.100098" fill="#F9CB64"/>
<path d="M91.25 389.48H121.97C124.92 389.48 126.6 388.51 126.6 386.1C126.6 383.69 124.71 382.83 121.98 382.83H91.25V376.59H121.85C128.22 376.59 132.23 379.47 132.23 386.21C132.23 392.95 128.76 395.7 121.87 395.7H91.25V389.47V389.48Z" fill="#404892"/>
<path d="M101.97 347.061H120.83C128.57 347.061 132.23 350.351 132.23 357.191C132.23 364.031 128.48 366.711 120.94 366.711H101.93C94.1899 366.711 90.6699 362.821 90.6699 356.801C90.6699 350.781 94.2099 347.071 101.98 347.071L101.97 347.061ZM101.36 360.361H121.68C125.04 360.361 126.61 359.151 126.61 356.901C126.61 354.481 125.14 353.401 121.59 353.401H101.32C98.1099 353.401 96.3399 354.381 96.3399 356.911C96.3399 359.151 97.9499 360.361 101.36 360.361Z" fill="#404892"/>
<path d="M91.25 342.02V326.29H97.03V335.79H107.66V326.74H113.44V335.79H131.64V342.02H91.25Z" fill="#404892"/>
<path d="M91.25 310.28H131.64V316.51H91.25V310.28Z" fill="#404892"/>
</g>
<defs>
<clipPath id="clip0_2_16">
<rect width="1033" height="404" fill="white"/>
</clipPath>
</defs>
</svg>
