 <svg width="502" height="639" viewBox="0 0 502 639" fill="none" xmlns="http://www.w3.org/2000/svg">
<g clip-path="url(#clip0_7_484)">
<rect width="502" height="639" fill="transparent"/>
<g clip-path="url(#clip1_7_484)">
<path d="M41.7639 19.3887L41.7593 20.3786C41.7439 23.5952 41.1682 27.659 35.8179 27.6329C30.9648 27.6099 30.0321 24.4162 30.0521 20.3832L30.1183 6.78768C30.1383 2.57812 32.0223 -0.00469903 36.0088 0.0152515C40.8373 0.0382713 41.7208 3.3255 41.7039 6.96109L41.6977 8.09981L38.0606 8.08292L38.0683 6.57436C38.0775 4.6453 37.7004 3.31015 35.9688 3.30094C34.2972 3.29327 33.8108 4.52713 33.8 6.58971L33.7308 20.684C33.72 22.834 34.1633 24.3702 35.9288 24.3794C37.6819 24.3871 38.0806 22.9399 38.0913 20.7162L38.0975 19.3718L41.7624 19.3903L41.7639 19.3887Z" fill="#404892"/>
<path d="M44.6357 0.435547L48.2482 0.452428L48.1959 11.2809L53.146 11.3055L53.1983 0.476983L56.8108 0.493864L56.68 27.3549L53.0675 27.338L53.1291 14.6173L48.179 14.5927L48.1174 27.3135L44.5049 27.2966L44.6357 0.435547Z" fill="#404892"/>
<path d="M64.0681 15.1564L64.008 27.3906L60.3955 27.3737L60.5263 0.512695L65.8412 0.538784C69.9186 0.558735 72.1504 2.24992 72.1273 6.91987L72.1212 8.02943C72.1027 11.9551 70.5712 13.1859 69.3506 13.6417C70.976 14.3415 71.8257 15.54 71.8072 19.1633C71.7964 21.4392 71.7348 25.7746 72.0211 27.4321L68.521 27.4152C68.1777 25.77 68.2685 21.3149 68.2778 19.392C68.2947 16.0311 67.8468 15.1763 65.3271 15.164L64.0665 15.1579L64.0681 15.1564ZM64.0819 12.1546L65.3748 12.1607C67.7252 12.1715 68.481 11.0757 68.4948 8.17522L68.4994 7.13779C68.5102 4.90334 67.9853 3.54977 65.4857 3.5375L64.1235 3.53136L64.0819 12.153V12.1546Z" fill="#404892"/>
<path d="M79.1828 0.601424L79.052 27.4625L75.4395 27.444L75.5703 0.583008L79.1828 0.601424Z" fill="#404892"/>
<path d="M85.3665 19.7327L85.3588 21.3487C85.348 23.5708 86.0591 24.7878 87.7692 24.797C89.5193 24.8047 90.0903 23.336 90.1011 21.0878C90.1149 18.0921 89.4669 17.0562 86.6102 14.7988C83.7288 12.5167 82.2234 11.0941 82.2434 7.1255C82.2604 3.64337 83.3301 0.205742 87.9246 0.239504C92.493 0.273267 93.3673 3.44386 93.3519 6.56842L93.3457 7.92351L89.7609 7.90663L89.7671 6.64668C89.7763 4.62554 89.4161 3.36099 87.84 3.35332C86.2808 3.34564 85.8667 4.70228 85.8575 6.61906C85.8467 8.76911 86.2623 9.70832 88.665 11.5054C92.5592 14.432 93.7659 16.0986 93.7444 20.5783C93.7259 24.375 92.4776 27.9078 87.6537 27.8848C82.9376 27.8617 81.7293 24.8277 81.7463 21.2888L81.754 19.7158L85.3665 19.7327Z" fill="#404892"/>
<path d="M99.257 4.03918L94.918 4.0177L94.9349 0.676758L107.23 0.736609L107.213 4.07755L102.87 4.05606L102.756 27.5777L99.1431 27.5608L99.257 4.03918Z" fill="#404892"/>
<path d="M113.238 0.767369L113.108 27.6284L109.495 27.6115L109.626 0.750488L113.238 0.767369Z" fill="#404892"/>
<path d="M120.357 19.8935L119.23 27.6573L115.561 27.6389L120.067 0.799316L125.185 0.823871L129.603 27.7079L125.824 27.6895L124.665 19.915L120.355 19.8935H120.357ZM124.243 16.6001C123.515 11.4652 122.912 7.03001 122.638 4.20164H122.501C122.381 6.3563 121.477 12.2263 120.84 16.5848L124.243 16.6016V16.6001Z" fill="#404892"/>
<path d="M131.992 27.7204L132.123 0.859375L136.348 0.879326C137.561 5.17329 140.933 18.7949 141.275 20.5444H141.327C141.167 17.1098 141.161 13.33 141.183 8.93012L141.221 0.902345L144.58 0.919226L144.449 27.7803L140.376 27.7603C139.3 23.7748 135.671 9.00378 135.308 7.44764H135.268C135.442 10.6934 135.443 14.6083 135.418 19.4471L135.378 27.7373L131.992 27.7204Z" fill="#404892"/>
<path d="M150.622 20.0486L150.615 21.6646C150.604 23.8868 151.315 25.1037 153.025 25.1129C154.775 25.1206 155.346 23.652 155.357 21.4037C155.371 18.408 154.723 17.3722 151.866 15.1147C148.985 12.8327 147.479 11.41 147.499 7.44141C147.516 3.95928 148.586 0.52166 153.181 0.555422C157.749 0.589185 158.623 3.76131 158.608 6.88433L158.602 8.23943L155.017 8.22255L155.023 6.9626C155.032 4.94146 154.672 3.67691 153.096 3.66923C151.537 3.66156 151.123 5.01819 151.113 6.93498C151.103 9.08503 151.518 10.0242 153.921 11.8213C157.815 14.7479 159.022 16.4145 159 20.8942C158.982 24.6909 157.733 28.2237 152.91 28.2007C148.193 28.1777 146.985 25.1436 147.002 21.6047L147.01 20.0317L150.622 20.0486Z" fill="#404892"/>
<path d="M42.4484 41.1101L42.3853 54.0718C42.3607 59.0395 40.2597 61.4335 35.9268 61.4136C31.6355 61.3921 29.8639 58.8231 29.8869 54.0687L29.95 41.0349C29.9731 36.1347 32.3666 33.7791 36.2947 33.7975C40.3366 33.8174 42.4715 36.3327 42.4469 41.1116L42.4484 41.1101ZM33.6334 40.7771L33.5672 54.4677C33.5549 57.0306 34.4799 58.1494 36.11 58.157C37.8477 58.1647 38.6912 57.1119 38.7035 54.4048L38.7697 40.7847C38.782 38.3493 37.9939 37.0878 36.1992 37.0786C34.5153 37.0709 33.6457 38.228 33.6334 40.7755V40.7771Z" fill="#404892"/>
<path d="M45.4863 61.0808L45.6172 34.2197L49.8438 34.2397C51.0567 38.5336 54.4291 52.1552 54.7708 53.9047H54.8232C54.6631 50.4702 54.6569 46.6903 54.6785 42.2905L54.7169 34.2627L58.0755 34.2796L57.9447 61.1406L53.8719 61.1207C52.796 57.1352 49.1666 42.3641 48.8033 40.808H48.7633C48.9372 44.0538 48.9388 47.9687 48.9141 52.8075L48.8741 61.0976L45.4879 61.0808H45.4863Z" fill="#404892"/>
<path d="M79.8742 53.3536L79.8696 54.3434C79.8542 57.5585 79.2786 61.6238 73.9283 61.5977C69.0752 61.5747 68.1424 58.3811 68.1624 54.348L68.2286 40.7525C68.2486 36.543 70.1326 33.9601 74.1192 33.9801C78.9476 34.0031 79.8311 37.2903 79.8142 40.9259L79.8081 42.0647L76.1709 42.0478L76.1786 40.5392C76.1878 38.6101 75.8123 37.275 74.0791 37.2673C72.4076 37.2596 71.9212 38.4935 71.9104 40.5561L71.8411 54.6503C71.8303 56.7989 72.2752 58.3366 74.0391 58.3458C75.7923 58.3535 76.1909 56.9063 76.2017 54.6841L76.2079 53.3397L79.8727 53.3582L79.8742 53.3536Z" fill="#404892"/>
<path d="M86.0725 53.5088L84.9458 61.2726L81.2764 61.2542L85.7832 34.4131L90.901 34.4376L95.3201 61.3217L91.5413 61.3033L90.3823 53.5287L86.0725 53.5088ZM89.959 50.2154C89.231 45.0789 88.6276 40.6453 88.3536 37.8169H88.2166C88.0966 39.9716 87.1946 45.8416 86.5558 50.2001L89.959 50.2169V50.2154Z" fill="#404892"/>
<path d="M111.171 50.8949C111.194 46.1789 111.284 40.6526 111.38 37.6616H111.34C110.676 42.2548 108.893 53.5238 107.573 61.3827L104.122 61.3659C103.193 54.4123 101.486 42.4482 100.881 37.5833H100.799C100.866 40.7079 100.969 46.7928 100.946 51.406L100.896 61.352L97.5947 61.3352L97.7256 34.4741L103.099 34.5002C104.293 41.8021 105.62 50.3839 105.966 54.0057H106.006C106.456 50.3915 108.212 41.3985 109.491 34.5309L114.706 34.557L114.575 61.418L111.12 61.4012L111.171 50.8964V50.8949Z" fill="#404892"/>
<path d="M118.296 34.5708L123.84 34.5969C128.004 34.6168 130.058 36.6978 130.035 41.2757L130.028 42.8794C130.008 47.1473 128.564 50.0984 123.546 50.0754L121.833 50.0677L121.778 61.4503L118.165 61.4334L118.296 34.5723V34.5708ZM121.848 47.0936L123.183 47.0997C125.969 47.1135 126.42 45.4561 126.434 42.7612L126.44 41.3908C126.451 39.3451 126.052 37.611 123.548 37.5987L121.895 37.591L121.848 47.0936Z" fill="#404892"/>
<path d="M135.995 34.657L135.895 55.2766C135.885 57.3469 136.58 58.6314 138.363 58.6406C140.185 58.6498 140.796 57.3254 140.805 55.3119L140.905 34.68L144.53 34.6985L144.43 55.2383C144.41 59.4401 142.499 61.9293 138.278 61.9094C134.227 61.8894 132.261 59.6642 132.284 55.2152L132.384 34.6401L135.997 34.6586L135.995 34.657Z" fill="#404892"/>
<path d="M150.556 53.828L150.549 55.444C150.538 57.6662 151.249 58.8832 152.959 58.8924C154.709 58.9001 155.28 57.4314 155.291 55.1816C155.305 52.1875 154.658 51.1516 151.8 48.8926C148.919 46.6106 147.413 45.1879 147.433 41.2178C147.45 37.7356 148.52 34.298 153.115 34.3318C157.683 34.3656 158.557 37.5377 158.543 40.6607L158.537 42.0158L154.952 41.9989L154.958 40.739C154.969 38.7178 154.608 37.4533 153.031 37.4456C151.472 37.4379 151.058 38.7946 151.049 40.7113C151.038 42.8614 151.454 43.8006 153.856 45.5961C157.751 48.5227 158.957 50.1894 158.936 54.669C158.917 58.4642 157.669 61.9985 152.845 61.974C148.129 61.9509 146.921 58.9169 146.938 55.378L146.945 53.8065L150.558 53.8234L150.556 53.828Z" fill="#404892"/>
<path d="M20.2436 45.8967C17.1837 45.8967 14.0853 45.8967 14.0853 45.8967C14.0853 45.8967 13.2757 42.8749 10.3835 38.6362C6.58011 33.0608 0 29.68 0 18.4908C0 9.53152 7.10036 0.0151367 20.2436 0.0151367" fill="#F9CB64"/>
<path d="M14.0449 59.7716H18.7734C19.2274 59.7716 19.486 59.6228 19.486 59.2529C19.486 58.8831 19.1951 58.7511 18.7749 58.7511H14.0449V57.7935H18.7549C19.7354 57.7935 20.3526 58.2354 20.3526 59.2698C20.3526 60.3041 19.8185 60.7262 18.758 60.7262H14.0449V59.7701V59.7716Z" fill="#404892"/>
<path d="M15.6954 53.2617H18.5983C19.7896 53.2617 20.353 53.7666 20.353 54.8163C20.353 55.866 19.7758 56.2773 18.6152 56.2773H15.6892C14.4979 56.2773 13.9561 55.6803 13.9561 54.7565C13.9561 53.8326 14.5009 53.2633 15.6969 53.2633L15.6954 53.2617ZM15.6015 55.3028H18.7291C19.2463 55.3028 19.488 55.1171 19.488 54.7718C19.488 54.4004 19.2617 54.2347 18.7153 54.2347H15.5953C15.1012 54.2347 14.8288 54.3851 14.8288 54.7734C14.8288 55.1171 15.0766 55.3028 15.6015 55.3028Z" fill="#404892"/>
<path d="M14.0449 52.4882V50.0742H14.9346V51.5321H16.5708V50.1433H17.4604V51.5321H20.2618V52.4882H14.0449Z" fill="#404892"/>
<path d="M14.0449 47.6172H20.2618V48.5733H14.0449V47.6172Z" fill="#404892"/>
</g>
<path d="M20.0962 447.614V513.539H0.685547V368.81H29.2337C51.1406 368.81 63.1669 377.864 63.1669 403.026V409.002C63.1669 430.156 54.9714 436.823 48.4349 439.314C57.1852 443.04 61.7801 449.477 61.7801 468.998C61.7801 481.26 61.5655 504.616 63.146 513.545H44.3477C42.4636 504.684 42.83 480.679 42.83 470.322C42.83 452.209 40.4069 447.62 26.8682 447.62H20.0962V447.614ZM20.0962 431.438H27.0409C39.669 431.438 43.6987 425.509 43.6987 409.887V404.303C43.6987 392.261 40.8413 384.986 27.4124 384.986H20.0962V431.443V431.438Z" fill="#404892"/>
<path d="M131.755 445.751H99.6694V495.688H136.413L133.896 513.534H80.2588V368.805H133.55V386.802H99.6642V427.905H131.75V445.751H131.755Z" fill="#404892"/>
<path d="M169.755 471.672L163.909 513.534H144.195L167.704 368.805H195.2L219.64 513.534H199.339L192.908 471.672H169.75H169.755ZM190.547 453.826C186.502 426.178 183.142 402.304 181.604 387.064H180.866C180.279 398.677 175.58 430.328 172.267 453.826H190.547Z" fill="#404892"/>
<path d="M230.996 368.805H259.973C290.913 368.805 296.9 386.153 296.9 411.378V467.574C296.9 489.738 293.258 513.534 259.544 513.534H230.996V368.805ZM250.401 496.902H258.22C274.093 496.902 277.123 487.262 277.123 470.61V409.578C277.123 394.83 274.501 385.583 258.199 385.583H250.401V496.897V496.902Z" fill="#404892"/>
<path d="M333.811 368.805V513.534H314.405V368.805H333.811Z" fill="#404892"/>
<path d="M354.269 513.534V368.805H376.971C383.596 391.905 402.07 465.214 403.954 474.629H404.237C403.284 456.129 403.154 435.766 403.154 412.059V368.805H421.193V513.534H399.312C393.425 492.088 373.543 412.592 371.549 404.224H371.335C372.355 421.709 372.46 442.805 372.46 468.867V513.534H354.269Z" fill="#404892"/>
<path d="M503.807 513.534H488.583C488.06 511.064 487.63 505.129 487.479 501.968C483.622 512.063 475.301 515.57 465.917 515.57C445.156 515.57 438.421 500.424 438.421 476.476V406.637C438.421 382.956 447.778 366.764 471.339 366.764C499.563 366.764 503.351 387.205 503.351 403.947V408.217H483.946V403.167C483.946 394.485 482.8 384.458 471.281 384.458C462.337 384.458 458.203 390.392 458.203 404.01V478.282C458.203 490.994 461.715 498.331 470.826 498.331C482.02 498.331 484.339 488.482 484.339 472.091V450.147H470.245V433.364H503.812V513.534H503.807Z" fill="#404892"/>
<path d="M48.241 606.992V611.037C48.241 624.178 45.975 640.799 24.1779 640.799C4.40619 640.799 0.543945 627.768 0.543945 611.288V555.731C0.543945 538.529 8.16898 527.941 24.4082 527.941C44.0857 527.941 47.7491 541.349 47.7491 556.207V560.859H32.9334V554.694C32.9334 546.808 31.3686 541.36 24.314 541.36C17.2594 541.36 15.5481 546.415 15.5481 554.841V612.44C15.5481 621.221 17.385 627.496 24.5809 627.496C31.7768 627.496 33.3154 621.572 33.3154 612.487V606.992H48.2515H48.241Z" fill="#404892"/>
<path d="M58.8066 529.48H73.5281V573.728H93.6976V529.48H108.419V639.25H93.6976V587.262H73.5281V639.25H58.8066V529.48Z" fill="#404892"/>
<path d="M136.925 607.499L132.493 639.25H117.541L135.371 529.48H156.226L174.763 639.25H159.366L154.489 607.499H136.925ZM152.694 593.966C149.622 572.996 147.078 554.888 145.911 543.333H145.351C144.906 552.141 141.342 576.146 138.83 593.966H152.694Z" fill="#404892"/>
<path d="M183.367 529.48H198.089V626.057H225.695L224.313 639.245H183.367V529.475V529.48Z" fill="#404892"/>
<path d="M232.833 529.48H247.555V626.057H275.161L273.779 639.245H232.833V529.475V529.48Z" fill="#404892"/>
<path d="M321.235 587.843H296.9V625.717H324.767L322.857 639.25H282.173V529.48H322.59V543.129H296.889V574.299H321.224V587.832L321.235 587.843Z" fill="#404892"/>
<path d="M333.397 639.25V529.48H350.615C355.639 547.001 369.654 602.601 371.078 609.744H371.292C370.57 595.714 370.471 580.265 370.471 562.288V529.48H384.156V639.25H367.561C363.097 622.985 348.014 562.691 346.507 556.343H346.345C347.119 569.604 347.198 585.603 347.198 605.369V639.245H333.397V639.25Z" fill="#404892"/>
<path d="M446.815 639.25H435.27C434.877 637.377 434.548 632.876 434.433 630.479C431.507 638.136 425.196 640.794 418.084 640.794C402.342 640.794 397.229 629.307 397.229 611.147V558.175C397.229 540.214 404.325 527.931 422.197 527.931C443.602 527.931 446.475 543.438 446.475 556.134V559.373H431.753V555.542C431.753 548.959 430.884 541.355 422.145 541.355C415.362 541.355 412.227 545.855 412.227 556.181V612.513C412.227 622.153 414.891 627.716 421.804 627.716C430.293 627.716 432.051 620.248 432.051 607.814V591.171H421.36V578.444H446.82V639.245L446.815 639.25Z" fill="#404892"/>
<path d="M500.023 587.843H475.688V625.717H503.555L501.645 639.25H460.961V529.48H501.378V543.129H475.677V574.299H500.012V587.832L500.023 587.843Z" fill="#404892"/>
<path d="M0.894531 157.046H54.9188C84.995 157.046 105.73 168.727 105.73 200.557V210.191C105.73 234.139 96.095 243.188 84.995 246.694C95.5089 250.782 108.357 258.961 108.357 282.904V299.551C108.357 336.054 94.3418 351.529 56.0858 351.529H0.894531V157.046ZM51.7055 230.345C56.9598 230.345 60.1731 227.425 60.1731 218.957V203.77C60.1731 197.343 59.006 191.503 50.5384 191.503H46.1581V230.34H51.7055V230.345ZM46.1581 317.366H50.2453C58.1321 317.366 59.5922 312.692 59.5922 303.932V276.776C59.5922 267.722 56.965 263.928 48.7852 263.928H46.1581V317.366Z" fill="#404892"/>
<path d="M170.848 157.046V351.535H124.711V157.046H170.848Z" fill="#404892"/>
<path d="M189.83 157.046H243.854C273.931 157.046 294.665 168.727 294.665 200.557V210.191C294.665 234.139 285.031 243.188 273.931 246.694C284.444 250.782 297.292 258.961 297.292 282.904V299.551C297.292 336.054 283.277 351.529 245.021 351.529H189.83V157.046ZM240.641 230.345C245.895 230.345 249.109 227.425 249.109 218.957V203.77C249.109 197.343 247.942 191.503 239.474 191.503H235.094V230.34H240.641V230.345ZM235.094 317.366H239.181C247.068 317.366 248.528 312.692 248.528 303.932V276.776C248.528 267.722 245.901 263.928 237.721 263.928H235.094V317.366Z" fill="#404892"/>
<path d="M313.354 157.046H359.784V312.106H403.295L398.621 351.529H313.349V157.046H313.354Z" fill="#404892"/>
<path d="M495.873 268.303H460.244V313.273H503.173L497.919 351.529H413.818V157.046H497.631V195.302H460.254V230.052H495.883V268.308L495.873 268.303Z" fill="#404892"/>
<path d="M0 141.681V81.1152H9.49859C12.2723 90.7813 20.002 121.459 20.7922 125.4H20.9074C20.5096 117.66 20.4521 109.135 20.4521 99.2175V81.1152H28.0038V141.681H18.8454C16.3805 132.706 8.05941 99.4425 7.2273 95.9362H7.13834C7.56224 103.252 7.60934 112.081 7.60934 122.988V141.681H0Z" fill="#F9CB64"/>
<path d="M58.0228 113.316H44.5939V134.213H59.9696L58.9177 141.681H36.4717V81.1152H58.7711V88.6461H44.5939V105.848H58.0228V113.316Z" fill="#F9CB64"/>
<path d="M71.0749 141.681L62.7119 81.1152H71.3627C72.9589 94.8843 75.3139 117.236 75.7901 127.876H75.9419C77.1037 116.352 80.3013 94.8372 82.1487 81.1152H90.1767C92.0869 95.1407 95.2583 115.185 96.2945 127.504H96.5039C97.1999 116.294 99.5916 95.2925 101.188 81.1152H109.425L100.377 141.681H91.9194C90.0982 127.855 87.1518 108.418 85.9586 96.9776H85.8068C84.4671 108.941 81.4003 128.221 79.464 141.681H71.0696H71.0749Z" fill="#F9CB64"/>
<path d="M132.149 88.6461H122.394V81.1152H150.036V88.6461H140.271V141.681H132.149V88.6461Z" fill="#F9CB64"/>
<path d="M175.8 113.316H162.371V134.213H177.747L176.695 141.681H154.249V81.1152H176.548V88.6461H162.371V105.848H175.8V113.316Z" fill="#F9CB64"/>
<path d="M189.328 124.181V127.828C189.328 132.842 190.94 135.574 194.781 135.574C198.622 135.574 199.983 132.256 199.983 127.185C199.983 120.434 198.513 118.105 192.07 113.044C185.57 107.931 182.169 104.739 182.169 95.7895C182.169 87.9395 184.534 80.1731 194.865 80.1993C205.133 80.2255 207.137 87.369 207.137 94.4079V97.4642H199.078V94.6277C199.078 90.0694 198.251 87.2225 194.713 87.2225C191.175 87.2225 190.291 90.284 190.291 94.6068C190.291 99.4529 191.233 101.567 196.655 105.592C205.442 112.149 208.173 115.891 208.173 125.991C208.173 134.548 205.405 142.529 194.561 142.529C183.718 142.529 181.211 135.699 181.211 127.724V124.181H189.333H189.328Z" fill="#F9CB64"/>
<path d="M220.09 88.6461H210.335V81.1152H237.978V88.6461H228.212V141.681H220.09V88.6461Z" fill="#F9CB64"/>
<path d="M246.278 124.16L243.834 141.676H235.586L245.419 81.1152H256.928L267.154 141.681H258.66L255.97 124.165H246.278V124.16ZM254.981 116.692C253.285 105.121 251.883 95.1302 251.239 88.756H250.93C250.684 93.6178 248.716 106.863 247.335 116.692H254.986H254.981Z" fill="#F9CB64"/>
<path d="M302.49 117.995C302.49 107.361 302.636 94.9 302.814 88.1541H302.725C301.286 98.5162 297.398 123.945 294.514 141.681H286.753C284.587 126.012 280.62 99.0553 279.207 88.0913H279.023C279.207 95.1355 279.505 108.852 279.505 119.251V141.676H272.084V81.1152H284.163C286.926 97.5638 290.003 116.901 290.819 125.065H290.908C291.877 116.912 295.728 96.6165 298.528 81.1152H310.251V141.681H302.485V117.995H302.49Z" fill="#F9CB64"/>
<path d="M340.264 113.316H326.835V134.213H342.211L341.159 141.681H318.713V81.1152H341.012V88.6461H326.835V105.848H340.264V113.316Z" fill="#F9CB64"/>
<path d="M346.979 141.681V81.1152H356.477C359.251 90.7813 366.981 121.459 367.771 125.4H367.886C367.489 117.66 367.431 109.135 367.431 99.2175V81.1152H374.983V141.681H365.824C363.359 132.706 355.038 99.4425 354.206 95.9362H354.117C354.541 103.252 354.588 112.081 354.588 122.988V141.681H346.974H346.979Z" fill="#F9CB64"/>
<path d="M389.186 88.6461H379.431V81.1152H407.073V88.6461H397.308V141.681H389.186V88.6461Z" fill="#F9CB64"/>
</g>
<defs>
<clipPath id="clip0_7_484">
<rect width="502" height="639" fill="transparent"/>
</clipPath>
<clipPath id="clip1_7_484">
<rect width="159" height="62" fill="transparent"/>
</clipPath>
</defs>
</svg>
