<svg xmlns="http://www.w3.org/2000/svg" xmlns:xlink="http://www.w3.org/1999/xlink" width="1920" zoomAndPan="magnify" viewBox="0 0 1440 809.999993" height="1080" preserveAspectRatio="xMidYMid meet" version="1.0"><defs><clipPath id="d10a230cd5"><path d="M 60.128906 409 L 885.878906 409 L 885.878906 810 L 60.128906 810 Z M 60.128906 409 " clip-rule="nonzero"/></clipPath><clipPath id="0c40b56f64"><path d="M 315 165.007812 L 1140 165.007812 L 1140 569 L 315 569 Z M 315 165.007812 " clip-rule="nonzero"/></clipPath><clipPath id="ac776aa0c4"><path d="M 237 331.175781 L 1397.949219 331.175781 L 1397.949219 810 L 237 810 Z M 237 331.175781 " clip-rule="nonzero"/></clipPath><clipPath id="5267da2d38"><path d="M 694.617188 95.347656 L 760.617188 95.347656 L 760.617188 100 L 694.617188 100 Z M 694.617188 95.347656 " clip-rule="nonzero"/></clipPath><clipPath id="92fdb9328a"><path d="M 736 95.347656 L 741 95.347656 L 741 111 L 736 111 Z M 736 95.347656 " clip-rule="nonzero"/></clipPath><clipPath id="83f1fcbddb"><path d="M 722 155 L 726 155 L 726 171.847656 L 722 171.847656 Z M 722 155 " clip-rule="nonzero"/></clipPath><clipPath id="6113d7facf"><path d="M 730 155 L 734 155 L 734 171.847656 L 730 171.847656 Z M 730 155 " clip-rule="nonzero"/></clipPath></defs><g clip-path="url(#d10a230cd5)"><path fill="#f9cb64" d="M 885.605469 812.648438 L 60.757812 812.648438 C 84.757812 777.207031 108.515625 741.046875 135.449219 708.398438 C 163.226562 674.738281 207.769531 662.945312 238.144531 628.167969 C 263.546875 599.082031 291.179688 566.871094 329.332031 560.933594 C 342.992188 558.800781 358.152344 559.972656 369.261719 551.726562 C 376.863281 546.085938 381.019531 537.054688 385.089844 528.496094 C 403.972656 488.824219 427.5 451.355469 455.03125 417.117188 C 457.199219 414.425781 459.503906 411.667969 462.648438 410.234375 C 466.226562 408.59375 470.367188 408.925781 474.28125 409.5 C 508.710938 414.585938 533.535156 435.597656 552.695312 463.25 C 575.421875 496.074219 601.660156 523.671875 630.640625 551.691406 C 666.710938 586.59375 708.828125 612.867188 742.226562 650.300781 C 786.140625 699.527344 830.054688 748.734375 873.953125 797.941406 C 878.09375 802.585938 882.320312 807.390625 885.605469 812.648438 Z M 885.605469 812.648438 " fill-opacity="1" fill-rule="nonzero"/></g><g clip-path="url(#0c40b56f64)"><path fill="#f9cb64" d="M 1139.894531 568.976562 L 315.046875 568.976562 C 339.046875 533.535156 362.804688 497.375 389.742188 464.726562 C 417.515625 431.066406 462.058594 419.277344 492.4375 384.496094 C 517.835938 355.410156 545.46875 323.199219 583.621094 317.261719 C 597.28125 315.128906 612.445312 316.300781 623.554688 308.054688 C 631.152344 302.414062 635.308594 293.382812 639.378906 284.824219 C 658.261719 245.152344 681.792969 207.683594 709.320312 173.445312 C 711.488281 170.753906 713.792969 167.996094 716.9375 166.5625 C 720.519531 164.921875 724.660156 165.253906 728.570312 165.828125 C 763 170.914062 787.824219 191.925781 806.988281 219.578125 C 829.710938 252.402344 855.949219 280 884.929688 308.019531 C 921 342.921875 963.117188 369.195312 996.515625 406.628906 C 1040.429688 455.855469 1084.347656 505.0625 1128.242188 554.269531 C 1132.382812 558.917969 1136.609375 563.71875 1139.894531 568.976562 Z M 1139.894531 568.976562 " fill-opacity="1" fill-rule="nonzero"/></g><g clip-path="url(#ac776aa0c4)"><path fill="#f9cb64" d="M 1397.019531 850.457031 L 237.835938 850.457031 C 271.566406 800.648438 304.953125 749.832031 342.804688 703.953125 C 381.835938 656.648438 444.4375 640.078125 487.125 591.199219 C 522.820312 550.328125 561.65625 505.058594 615.269531 496.714844 C 634.464844 493.71875 655.773438 495.363281 671.386719 483.777344 C 682.066406 475.847656 687.910156 463.15625 693.628906 451.125 C 720.167969 395.375 753.234375 342.71875 791.921875 294.605469 C 794.964844 290.824219 798.207031 286.945312 802.625 284.933594 C 807.65625 282.625 813.476562 283.089844 818.972656 283.902344 C 867.359375 291.046875 902.242188 320.578125 929.171875 359.4375 C 961.109375 405.5625 997.980469 444.351562 1038.707031 483.726562 C 1089.402344 532.773438 1148.589844 569.695312 1195.523438 622.304688 C 1257.238281 691.480469 1318.953125 760.632812 1380.644531 829.789062 C 1386.464844 836.316406 1392.402344 843.070312 1397.019531 850.457031 Z M 1397.019531 850.457031 " fill-opacity="1" fill-rule="nonzero"/></g><g clip-path="url(#5267da2d38)"><path fill="#aa614b" d="M 758.777344 95.59375 L 756.894531 95.359375 C 756.558594 95.320312 756.242188 95.375 755.941406 95.527344 L 754.347656 96.335938 L 704.480469 96.335938 C 704.277344 96.335938 704.109375 96.414062 703.976562 96.570312 L 695.265625 96.570312 C 695.113281 96.570312 694.984375 96.621094 694.875 96.730469 C 694.769531 96.835938 694.714844 96.964844 694.714844 97.117188 C 694.714844 97.269531 694.769531 97.398438 694.875 97.507812 C 694.984375 97.613281 695.113281 97.667969 695.265625 97.667969 L 720.953125 97.667969 C 721.023438 97.867188 721.144531 98.027344 721.316406 98.148438 C 721.488281 98.269531 721.679688 98.328125 721.890625 98.332031 L 752.558594 98.332031 L 756.390625 99.527344 C 756.773438 99.644531 757.152344 99.628906 757.523438 99.46875 L 759.214844 98.757812 C 759.558594 98.609375 759.824219 98.375 760.007812 98.050781 C 760.191406 97.726562 760.257812 97.378906 760.207031 97.007812 C 760.15625 96.636719 760 96.320312 759.730469 96.058594 C 759.464844 95.796875 759.148438 95.640625 758.777344 95.59375 Z M 758.777344 95.59375 " fill-opacity="1" fill-rule="nonzero"/></g><path fill="#d39a53" d="M 716.199219 106.101562 L 715.582031 101.527344 L 717.164062 99.238281 L 716.550781 97.683594 L 715.789062 97.683594 L 715.582031 96.070312 L 713.585938 96.070312 L 712.96875 97.472656 L 713.996094 101.613281 L 713.554688 111.101562 Z M 716.199219 106.101562 " fill-opacity="1" fill-rule="nonzero"/><g clip-path="url(#92fdb9328a)"><path fill="#d39a53" d="M 737.230469 105.574219 L 737.84375 100.996094 L 736.261719 98.710938 L 736.878906 97.15625 L 737.640625 97.15625 L 737.84375 95.542969 L 739.839844 95.542969 L 740.460938 96.941406 L 739.429688 101.085938 L 739.863281 110.335938 Z M 737.230469 105.574219 " fill-opacity="1" fill-rule="nonzero"/></g><path fill="#9b8f83" d="M 724.484375 121.011719 C 724.484375 121.011719 725.078125 116.648438 726.171875 115.648438 C 727.375 114.550781 729.527344 115.011719 730.015625 115.691406 C 730.5 116.375 731.464844 121.011719 731.464844 121.011719 C 731.464844 121.011719 726.480469 121.492188 724.484375 121.011719 Z M 724.484375 121.011719 " fill-opacity="1" fill-rule="nonzero"/><g clip-path="url(#83f1fcbddb)"><path fill="#a7694f" d="M 722.828125 155.46875 L 723.53125 172.011719 L 724.644531 172.011719 L 725.9375 156.523438 Z M 722.828125 155.46875 " fill-opacity="1" fill-rule="nonzero"/></g><g clip-path="url(#6113d7facf)"><path fill="#a7694f" d="M 730.277344 156.523438 L 731.6875 172.011719 L 732.625 172.011719 L 733.5625 155.9375 Z M 730.277344 156.523438 " fill-opacity="1" fill-rule="nonzero"/></g><path fill="#945744" d="M 723.0625 123.964844 L 717.605469 112.613281 L 716.3125 103.5625 C 716.292969 103.433594 716.222656 103.359375 716.097656 103.339844 C 715.96875 103.316406 715.878906 103.363281 715.816406 103.476562 L 711.039062 112.519531 C 710.734375 113.09375 710.535156 113.699219 710.441406 114.34375 C 710.347656 114.984375 710.359375 115.625 710.484375 116.261719 C 710.609375 116.898438 710.839844 117.496094 711.167969 118.054688 C 711.5 118.613281 711.914062 119.097656 712.410156 119.515625 L 722.359375 127.835938 L 715.140625 156.171875 C 716.8125 156.355469 718.277344 157 719.542969 158.109375 C 721.742188 159.957031 725.527344 159.605469 727.988281 159.253906 C 730.453125 158.898438 732.652344 157.492188 735.207031 158.019531 C 737.757812 158.546875 741.191406 155.730469 741.191406 155.730469 L 734.5 129.597656 L 742.691406 119.359375 C 743.042969 118.921875 743.320312 118.441406 743.527344 117.921875 C 743.738281 117.398438 743.863281 116.859375 743.914062 116.300781 C 743.960938 115.742188 743.925781 115.1875 743.808594 114.636719 C 743.691406 114.089844 743.496094 113.570312 743.226562 113.078125 L 737.652344 102.996094 C 737.589844 102.882812 737.496094 102.839844 737.367188 102.867188 C 737.238281 102.894531 737.167969 102.972656 737.160156 103.101562 L 736.339844 113.230469 L 732.652344 124.316406 Z M 723.0625 123.964844 " fill-opacity="1" fill-rule="nonzero"/><path fill="#aa614b" d="M 719.542969 158.109375 C 721.742188 159.957031 725.527344 159.605469 727.988281 159.253906 C 730.453125 158.898438 732.652344 157.492188 735.207031 158.019531 C 737.757812 158.546875 741.191406 155.730469 741.191406 155.730469 L 739.714844 149.972656 C 737.519531 151.214844 734.070312 152.269531 732.742188 152.125 C 731.097656 151.949219 727.636719 152.535156 725.9375 152.886719 C 725.128906 153.027344 724.332031 152.988281 723.542969 152.773438 C 722.75 152.558594 722.042969 152.183594 721.417969 151.65625 C 720.734375 151.109375 718.527344 150.238281 716.8125 149.613281 L 715.140625 156.171875 C 716.8125 156.355469 718.277344 157.003906 719.542969 158.109375 Z M 719.542969 158.109375 " fill-opacity="1" fill-rule="nonzero"/><path fill="#a7694f" d="M 724.519531 120.578125 C 724.261719 120.539062 724.03125 120.597656 723.824219 120.753906 C 723.617188 120.910156 723.496094 121.117188 723.460938 121.371094 C 723.410156 121.742188 723.347656 122.125 723.296875 122.324219 C 723.179688 122.792969 723.0625 123.964844 723.0625 123.964844 C 723.0625 123.964844 725.585938 124.960938 727.582031 125.136719 C 729.574219 125.316406 732.65625 124.316406 732.65625 124.316406 C 732.65625 124.316406 733.09375 122.148438 732.65625 121.675781 C 732.488281 121.484375 732.371094 121.265625 732.308594 121.015625 C 732.265625 120.839844 732.167969 120.699219 732.019531 120.59375 C 731.871094 120.492188 731.707031 120.445312 731.527344 120.460938 C 730.089844 120.609375 726.734375 120.890625 724.519531 120.578125 Z M 724.519531 120.578125 " fill-opacity="1" fill-rule="nonzero"/><path fill="#aa614b" d="M 747.355469 150.363281 L 753.867188 146.257812 C 753.867188 146.257812 746.476562 134.816406 742.722656 132.765625 C 739.074219 130.769531 733.484375 126.019531 730.320312 120.574219 C 730.140625 120.261719 729.867188 120.101562 729.503906 120.101562 L 726.632812 120.101562 C 726.539062 120.101562 726.449219 120.121094 726.363281 120.160156 C 726.277344 120.199219 726.207031 120.257812 726.144531 120.328125 C 726.082031 120.402344 726.039062 120.480469 726.015625 120.574219 C 725.992188 120.664062 725.984375 120.757812 726 120.847656 C 726.398438 123.167969 727.882812 130.257812 731.574219 132.941406 C 736.019531 136.171875 740.902344 137.222656 747.355469 150.363281 Z M 747.355469 150.363281 " fill-opacity="1" fill-rule="nonzero"/></svg>