<svg width="208" height="135" viewBox="0 0 208 135" fill="none" xmlns="http://www.w3.org/2000/svg">
<g clip-path="url(#clip0_7_500)">
<rect width="208" height="135" fill="transparent"/>
<path d="M8.48267 43.7373V47.3256C8.48267 52.2617 10.0697 54.9514 13.8564 54.9514C17.643 54.9514 18.9792 51.684 18.9792 46.6896C18.9792 40.0381 17.5322 37.7451 11.1841 32.7682C4.77768 27.7329 1.42861 24.5939 1.42861 15.7778C1.42861 8.04689 3.76246 0.403527 13.9322 0.4327C24.0436 0.461874 26.0157 7.4926 26.0157 14.4241V17.4348H18.0806V14.64C18.0806 10.1532 17.2696 7.35257 13.7805 7.35257C10.2914 7.35257 9.42788 10.3691 9.42788 14.6225C9.42788 19.3952 10.3556 21.4782 15.6943 25.4399C24.347 31.893 27.0309 35.5805 27.0309 45.5285C27.0309 53.9537 24.3062 61.813 13.6288 61.813C2.95145 61.813 0.483398 55.0798 0.483398 47.2264V43.7373H8.48267Z" fill="#E5E5E5"/>
<path d="M38.7698 8.74686H29.166V1.33105H56.3845V8.74686H46.7691V60.9668H38.7698V8.74686Z" fill="#E5E5E5"/>
<path d="M64.553 43.7196L62.1433 60.9668H54.0215L63.7128 1.33105H75.0436L85.1142 60.9609H76.7532L74.1043 43.7138H64.5647L64.553 43.7196ZM73.1182 36.368C71.4495 24.973 70.0667 15.1416 69.4307 8.86356H69.1273C68.8881 13.6479 66.951 26.6883 65.5857 36.368H73.1182Z" fill="#E5E5E5"/>
<path d="M97.7815 33.8066V60.9668H89.7822V1.33105H101.545C110.571 1.33105 115.525 5.05938 115.525 15.4275V17.8897C115.525 26.6066 112.146 29.3548 109.457 30.3758C113.062 31.9103 114.953 34.5592 114.953 42.6052C114.953 47.658 114.865 57.2793 115.513 60.9609H107.765C106.989 57.3084 107.14 47.4188 107.14 43.1536C107.14 35.6912 106.143 33.8007 100.565 33.8007H97.7757L97.7815 33.8066ZM97.7815 27.1434H100.64C105.845 27.1434 107.502 24.6987 107.502 18.2631V15.9643C107.502 11.0049 106.323 8.00587 100.792 8.00587H97.7757V27.1376L97.7815 27.1434Z" fill="#E5E5E5"/>
<path d="M128.396 8.74686H118.792V1.33105H146.011V8.74686H136.395V60.9668H128.396V8.74686Z" fill="#E5E5E5"/>
<path d="M8.21412 106.99V134.15H0.214844V74.5205H11.9833C21.0094 74.5205 25.963 78.2488 25.963 88.617V91.0792C25.963 99.7961 22.5848 102.544 19.895 103.565C23.5008 105.1 25.3913 107.749 25.3913 115.795C25.3913 120.847 25.3037 130.469 25.9514 134.15H18.203C17.427 130.498 17.5787 120.608 17.5787 116.343C17.5787 108.881 16.581 106.99 11.0031 106.99H8.21412ZM8.21412 100.327H11.0731C16.2776 100.327 17.9346 97.8823 17.9346 91.4468V89.1479C17.9346 84.1885 16.756 81.1895 11.2248 81.1895H8.20828V100.333L8.21412 100.327Z" fill="#E5E5E5"/>
<path d="M54.2206 106.226H40.9993V126.799H56.1401L55.1016 134.15H33.0059V74.5205H54.9616V81.9363H40.9993V98.8684H54.2206V106.22V106.226Z" fill="#E5E5E5"/>
<path d="M69.8801 116.909L67.4704 134.156H59.3486L69.0341 74.5264H80.365L90.4355 134.156H82.0745L79.4256 116.909H69.886H69.8801ZM78.4454 109.557C76.7767 98.1624 75.3939 88.3311 74.7579 82.053H74.4545C74.2153 86.8374 72.2782 99.8778 70.9129 109.557H78.4454Z" fill="#E5E5E5"/>
<path d="M95.1094 74.5205H107.047C119.796 74.5205 122.264 81.6679 122.264 92.0652V115.223C122.264 124.354 120.764 134.156 106.872 134.156H95.1094V74.5205ZM103.109 127.301H106.329C112.87 127.301 114.119 123.327 114.119 116.466V91.3184C114.119 85.2445 113.039 81.4345 106.318 81.4345H103.109V127.301Z" fill="#E5E5E5"/>
<path d="M137.475 74.5205V134.15H129.476V74.5205H137.475Z" fill="#E5E5E5"/>
<path d="M145.899 134.156V74.5205H155.252C157.983 84.0368 165.591 114.243 166.367 118.123H166.484C166.093 110.503 166.041 102.107 166.041 92.3453V74.5205H173.474V134.15H164.459C162.032 125.311 153.84 92.5612 153.023 89.1129H152.936C153.356 96.3187 153.397 105.006 153.397 115.748V134.15H145.899V134.156Z" fill="#E5E5E5"/>
<path d="M207.514 134.156H201.241C201.026 133.141 200.851 130.696 200.786 129.389C199.199 133.549 195.769 134.996 191.906 134.996C183.352 134.996 180.575 128.753 180.575 118.893V90.1163C180.575 80.3608 184.432 73.686 194.141 73.686C205.769 73.686 207.333 82.1112 207.333 89.0078V90.7698H199.334V88.6869C199.334 85.1102 198.861 80.9793 194.117 80.9793C190.43 80.9793 188.726 83.424 188.726 89.0369V119.64C188.726 124.879 190.173 127.901 193.931 127.901C198.54 127.901 199.497 123.846 199.497 117.09V108.046H193.691V101.132H207.525V134.162L207.514 134.156Z" fill="#E5E5E5"/>
</g>
<defs>
<clipPath id="clip0_7_500">
<rect width="208" height="135" fill="transparent"/>
</clipPath>
</defs>
</svg>
