<svg xmlns="http://www.w3.org/2000/svg" width="100" height="100" viewBox="0 0 100 100"><rect width="100%" height="100%" fill="#DDDDDD"/><path fill="#999999" d="M28.49 44.695h1.22v8.68h-1.42v-5.6q0-.34.04-.73l-2.63 4.93q-.18.35-.57.35h-.22q-.39 0-.57-.35l-2.66-4.95q.02.2.03.39.02.19.02.36v5.6H20.3v-8.68h1.22q.11 0 .19.01t.14.03q.06.02.11.08.05.05.1.14l2.6 4.82q.1.19.19.4.09.2.17.42.08-.23.17-.43.09-.21.2-.4l2.56-4.81q.05-.09.1-.14.05-.06.12-.08.06-.02.14-.03.08-.01.18-.01Zm2.97 2.52h1.49v6.16h-1.49v-6.16Zm1.69-1.79q0 .19-.08.36-.08.17-.2.29-.13.13-.31.21-.17.07-.37.07-.19 0-.36-.07-.17-.08-.3-.21-.13-.12-.2-.29-.08-.17-.08-.36 0-.2.08-.37.07-.18.2-.3.13-.13.3-.2.17-.08.36-.08.2 0 .37.08.18.07.31.2.12.12.2.3.08.17.08.37Zm5.4 2.46-.34.53q-.06.1-.12.14-.07.04-.17.04-.11 0-.23-.06-.12-.06-.29-.14-.16-.07-.37-.13-.2-.06-.48-.06-.44 0-.69.18-.25.19-.25.49 0 .2.13.33.13.14.34.24.21.1.48.18.27.08.55.18.28.1.55.22t.49.31q.21.19.34.45.13.27.13.64 0 .44-.16.82-.16.37-.47.65-.32.27-.78.42-.45.16-1.05.16-.32 0-.63-.06-.3-.06-.58-.16-.28-.1-.51-.24-.24-.14-.42-.3l.34-.56q.07-.11.16-.16t.23-.05q.13 0 .26.07.12.08.28.17.16.09.38.17.22.08.56.08.26 0 .45-.07.19-.06.31-.16.13-.1.18-.24.06-.13.06-.28 0-.21-.13-.35-.13-.14-.34-.24-.21-.1-.49-.18-.27-.08-.55-.18-.29-.1-.56-.23-.28-.12-.49-.32-.21-.2-.34-.49-.13-.29-.13-.69 0-.38.15-.72.15-.35.44-.6.29-.26.73-.41.43-.15 1-.15.64 0 1.16.21.52.21.87.55Zm5.27 0-.33.53q-.06.1-.13.14-.06.04-.17.04-.1 0-.23-.06l-.28-.14q-.16-.07-.37-.13t-.49-.06q-.44 0-.69.18-.25.19-.25.49 0 .2.13.33.13.14.34.24.22.1.49.18.27.08.55.18.28.1.55.22t.48.31q.21.19.34.45.13.27.13.64 0 .44-.16.82-.16.37-.47.65-.31.27-.77.42-.46.16-1.06.16-.32 0-.62-.06t-.58-.16q-.28-.1-.52-.24-.24-.14-.42-.3l.35-.56q.06-.11.15-.16t.23-.05q.14 0 .26.07.12.08.29.17.16.09.38.17.22.08.55.08.27 0 .45-.07.19-.06.32-.16.12-.1.18-.24.05-.13.05-.28 0-.21-.13-.35-.12-.14-.34-.24-.21-.1-.48-.18-.28-.08-.56-.18-.29-.1-.56-.23-.27-.12-.49-.32-.21-.2-.34-.49-.13-.29-.13-.69 0-.38.15-.72.15-.35.44-.6.3-.26.73-.41.44-.15 1.01-.15.63 0 1.15.21.53.21.87.55Zm1.23-.67h1.49v6.16h-1.49v-6.16Zm1.7-1.79q0 .19-.08.36-.08.17-.21.29-.13.13-.3.21-.18.07-.37.07-.2 0-.37-.07-.17-.08-.29-.21-.13-.12-.21-.29-.07-.17-.07-.36 0-.2.07-.37.08-.18.21-.3.12-.13.29-.2.17-.08.37-.08.19 0 .37.08.17.07.3.2.13.12.21.3.08.17.08.37Zm2.59 2.06.1.49q.19-.19.39-.35.21-.15.44-.27.23-.11.5-.17.26-.06.57-.06.51 0 .9.17t.65.48q.26.31.39.74.14.43.14.94v3.92h-1.48v-3.92q0-.56-.26-.87-.26-.31-.79-.31-.38 0-.72.17-.33.18-.63.48v4.45h-1.49v-6.16h.91q.29 0 .38.27Zm7.73 2.66q.28 0 .48-.07.21-.08.34-.21.14-.13.2-.32.07-.18.07-.41 0-.45-.27-.72-.27-.27-.82-.27-.54 0-.82.27-.27.27-.27.72 0 .22.07.41.07.18.2.32.14.13.34.21.21.07.48.07Zm1.68 3.51q0-.18-.11-.3-.11-.11-.3-.18-.18-.06-.43-.09t-.53-.04q-.28-.02-.58-.03-.29-.01-.57-.05-.25.14-.4.33-.16.18-.16.43 0 .16.08.3.09.14.26.24.18.11.46.16.28.06.69.06.42 0 .72-.06.3-.07.49-.18.2-.11.29-.26.09-.15.09-.33Zm-.3-6.23h1.77v.56q0 .26-.32.32l-.55.1q.13.32.13.7 0 .45-.19.82-.18.37-.5.63-.33.26-.77.4t-.95.14q-.18 0-.35-.02-.16-.02-.33-.05-.28.18-.28.39 0 .19.17.28.17.08.45.12.28.04.64.04.36.01.74.04t.74.11q.36.07.64.24.28.16.45.44.17.28.17.71 0 .41-.2.8-.2.38-.58.68-.38.3-.94.48-.55.19-1.26.19-.69 0-1.21-.14-.52-.13-.86-.36-.34-.22-.51-.52-.17-.29-.17-.61 0-.43.26-.72.27-.29.72-.47-.24-.12-.39-.33-.14-.21-.14-.56 0-.13.05-.28.05-.15.15-.29.1-.15.25-.28.15-.12.35-.23-.47-.25-.73-.67-.27-.42-.27-.98 0-.46.18-.83.19-.37.51-.63.33-.26.78-.4.44-.13.97-.13.4 0 .75.08.34.08.63.23Zm7.54 5.95h-1.48v-5.04l-.54-.08q-.17-.04-.28-.13-.1-.08-.1-.25v-.6h.92v-.46q0-.53.16-.95.15-.42.45-.71.3-.29.72-.45.43-.16.96-.16.43 0 .8.12l-.03.74q-.01.09-.05.14-.04.05-.11.08-.07.02-.16.03-.09.01-.19.01-.27 0-.47.06-.21.05-.36.19-.14.15-.22.38-.07.23-.07.57v.41h1.6v1.05h-1.55v5.05Zm2.43-6.16h1.49v6.16h-1.49v-6.16Zm1.7-1.79q0 .19-.08.36-.08.17-.21.29-.13.13-.3.21-.18.07-.37.07-.2 0-.37-.07-.17-.08-.29-.21-.13-.12-.2-.29-.08-.17-.08-.36 0-.2.08-.37.07-.18.2-.3.12-.13.29-.2.17-.08.37-.08.19 0 .37.08.17.07.3.2.13.12.21.3.08.17.08.37Zm1.32-.97h1.48v8.92h-1.48v-8.92Zm4.14 5.13h2.79q0-.28-.08-.54-.08-.25-.24-.45-.16-.19-.41-.3-.25-.11-.58-.11-.64 0-1.01.37-.37.36-.47 1.03Zm3.78.9h-3.81q.03.47.16.82.14.34.35.57.22.22.51.33.3.11.66.11.36 0 .62-.08t.46-.19l.34-.18q.15-.09.29-.09.18 0 .27.14l.43.54q-.25.29-.55.49-.31.19-.64.31-.34.11-.68.16-.35.05-.67.05-.64 0-1.19-.21-.56-.22-.96-.63-.41-.42-.65-1.04-.23-.61-.23-1.42 0-.63.2-1.19.21-.55.59-.96.38-.41.93-.65.55-.24 1.24-.24.58 0 1.07.18.49.19.85.55.35.35.55.87.2.52.2 1.19 0 .33-.07.45t-.27.12Z"/></svg>